<svg width="50" height="50" viewBox="0 0 50 50" fill="none" xmlns="http://www.w3.org/2000/svg">
<g clip-path="url(#clip0_1_1254)">
<path d="M49.7732 24.9965C49.7732 11.3131 38.6806 0.220497 24.9972 0.220497C11.3138 0.220497 0.221191 11.3131 0.221191 24.9965C0.221191 38.6799 11.3138 49.7725 24.9972 49.7725C38.6806 49.7725 49.7732 38.6799 49.7732 24.9965Z" fill="url(#paint0_linear_1_1254)" stroke="url(#paint1_linear_1_1254)" stroke-width="1.89263" stroke-miterlimit="10"/>
<path d="M36.5403 17.0265C37.4956 16.0712 37.4956 14.5223 36.5403 13.567L35.703 12.7297C34.7477 11.7744 33.1988 11.7744 32.2435 12.7298L26.3648 18.6085C25.4094 19.5638 23.8606 19.5638 22.9053 18.6085L17.0265 12.7298C16.0712 11.7744 14.5223 11.7744 13.567 12.7298L12.7298 13.567C11.7744 14.5223 11.7744 16.0712 12.7298 17.0265L18.6085 22.9052C19.5638 23.8606 19.5638 25.4094 18.6085 26.3647L12.7298 32.2435C11.7744 33.1988 11.7744 34.7477 12.7297 35.703L13.567 36.5403C14.5223 37.4956 16.0712 37.4956 17.0265 36.5403L22.9053 30.6615C23.8606 29.7062 25.4094 29.7062 26.3648 30.6615L32.2435 36.5403C33.1988 37.4956 34.7477 37.4956 35.703 36.5403L36.5403 35.703C37.4956 34.7477 37.4956 33.1988 36.5403 32.2435L30.6615 26.3647C29.7062 25.4094 29.7062 23.8606 30.6615 22.9052L36.5403 17.0265Z" fill="#FF262B"/>
</g>
<defs>
<linearGradient id="paint0_linear_1_1254" x1="37.3896" y1="46.4571" x2="12.6107" y2="3.53591" gradientUnits="userSpaceOnUse">
<stop stop-color="white" stop-opacity="0"/>
<stop offset="1" stop-color="white" stop-opacity="0.45"/>
</linearGradient>
<linearGradient id="paint1_linear_1_1254" x1="0.000163949" y1="24.9995" x2="50.0002" y2="24.9995" gradientUnits="userSpaceOnUse">
<stop stop-color="white" stop-opacity="0.62"/>
<stop offset="1" stop-color="white" stop-opacity="0.5"/>
</linearGradient>
<clipPath id="clip0_1_1254">
<rect width="50" height="50" fill="white"/>
</clipPath>
</defs>
</svg>
