<svg width="26" height="21" viewBox="0 0 26 21" fill="none" xmlns="http://www.w3.org/2000/svg">
<path fill-rule="evenodd" clip-rule="evenodd" d="M3.4518 0.182495H3.43502H3.43502C2.98583 0.182492 2.62501 0.182489 2.33315 0.206335C2.03311 0.23085 1.7718 0.282492 1.53076 0.405311C1.1461 0.601305 0.83336 0.914043 0.637366 1.2987C0.514548 1.53975 0.462905 1.80105 0.438391 2.10109C0.414544 2.39296 0.414547 2.75377 0.414551 3.20296V3.20297V3.21974V5.37928C0.414551 5.59433 0.588886 5.76867 0.80394 5.76867C1.01899 5.76867 1.19333 5.59433 1.19333 5.37928V3.21974C1.19333 2.7499 1.19363 2.42093 1.21458 2.16451C1.23516 1.91263 1.27371 1.76522 1.33126 1.65226C1.45259 1.41414 1.64619 1.22054 1.88432 1.09921C1.99728 1.04165 2.14468 1.00311 2.39656 0.982527C2.65299 0.961576 2.98195 0.961273 3.4518 0.961273H6.75595C6.97101 0.961273 7.14534 0.786938 7.14534 0.571884C7.14534 0.356831 6.97101 0.182495 6.75595 0.182495H3.4518ZM21.9641 0.961273C22.434 0.961273 22.7629 0.961576 23.0194 0.982527C23.2712 1.00311 23.4187 1.04165 23.5316 1.09921C23.7697 1.22054 23.9633 1.41414 24.0847 1.65226C24.1422 1.76522 24.1808 1.91263 24.2013 2.16451C24.2223 2.42093 24.2226 2.7499 24.2226 3.21974V5.37928C24.2226 5.59433 24.3969 5.76867 24.612 5.76867C24.827 5.76867 25.0014 5.59433 25.0014 5.37928V3.21974V3.20294V3.2029C25.0014 2.75374 25.0014 2.39295 24.9775 2.10109C24.953 1.80105 24.9014 1.53975 24.7786 1.2987C24.5826 0.914042 24.2698 0.601304 23.8852 0.405311C23.6441 0.282492 23.3828 0.23085 23.0828 0.206335C22.7909 0.182489 22.4301 0.182492 21.9809 0.182495H21.9641H18.66C18.4449 0.182495 18.2706 0.356831 18.2706 0.571884C18.2706 0.786938 18.4449 0.961273 18.66 0.961273H21.9641ZM1.19333 14.9941C1.19333 14.779 1.01899 14.6047 0.80394 14.6047C0.588886 14.6047 0.414551 14.779 0.414551 14.9941V17.1536V17.1704C0.414547 17.6196 0.414544 17.9804 0.438391 18.2723C0.462905 18.5723 0.514548 18.8336 0.637366 19.0746C0.83336 19.4593 1.1461 19.772 1.53076 19.968C1.7718 20.0908 2.03311 20.1425 2.33315 20.167C2.625 20.1909 2.9858 20.1909 3.43496 20.1908H3.435H3.4518H6.75595C6.97101 20.1908 7.14534 20.0165 7.14534 19.8015C7.14534 19.5864 6.97101 19.4121 6.75595 19.4121H3.4518C2.98195 19.4121 2.65299 19.4118 2.39656 19.3908C2.14468 19.3702 1.99728 19.3317 1.88432 19.2741L1.70754 19.6211L1.88431 19.2741C1.64619 19.1528 1.45259 18.9592 1.33126 18.7211C1.27371 18.6081 1.23516 18.4607 1.21458 18.2088C1.19363 17.9524 1.19333 17.6234 1.19333 17.1536V14.9941ZM25.0014 14.9941C25.0014 14.779 24.827 14.6047 24.612 14.6047C24.3969 14.6047 24.2226 14.779 24.2226 14.9941V17.1536C24.2226 17.6234 24.2223 17.9524 24.2013 18.2088C24.1808 18.4607 24.1422 18.6081 24.0847 18.7211C23.9633 18.9592 23.7697 19.1528 23.5316 19.2741C23.4187 19.3317 23.2712 19.3702 23.0194 19.3908C22.7629 19.4118 22.434 19.4121 21.9641 19.4121H18.66C18.4449 19.4121 18.2706 19.5864 18.2706 19.8015C18.2706 20.0165 18.4449 20.1908 18.66 20.1908H21.9641H21.9809H21.981C22.4301 20.1909 22.7909 20.1909 23.0828 20.167C23.3828 20.1425 23.6441 20.0908 23.8852 19.968C24.2698 19.772 24.5826 19.4593 24.7786 19.0746C24.9014 18.8336 24.953 18.5723 24.9775 18.2723C25.0014 17.9804 25.0014 17.6196 25.0014 17.1704V17.1704V17.1536V14.9941ZM4.46059 6.56096C4.46059 5.90672 4.46059 5.57961 4.58791 5.32972C4.69991 5.10992 4.87861 4.93121 5.09842 4.81921C5.3483 4.69189 5.67542 4.69189 6.32965 4.69189H19.074C19.7283 4.69189 20.0554 4.69189 20.3053 4.81921C20.5251 4.93121 20.7038 5.10992 20.8158 5.32972C20.9431 5.57961 20.9431 5.90672 20.9431 6.56096V6.75255H4.46071V8.81286H20.9431V13.8112C20.9431 14.4654 20.9431 14.7925 20.8158 15.0424C20.7038 15.2622 20.5251 15.4409 20.3053 15.5529C20.0554 15.6802 19.7283 15.6802 19.074 15.6802H6.32965C5.67542 15.6802 5.3483 15.6802 5.09842 15.5529C4.87861 15.4409 4.69991 15.2622 4.58791 15.0424C4.46059 14.7925 4.46059 14.4654 4.46059 13.8112V6.56096ZM9.95427 12.9341H5.83365V14.3076H9.95427V12.9341Z" fill="#A8A8A8"/>
</svg>
