<svg width="43" height="43" viewBox="0 0 43 43" fill="none" xmlns="http://www.w3.org/2000/svg">
<path d="M31.5657 10.6926L34.169 8.08933L36.7024 10.6228L34.0991 13.226C36.6715 16.446 37.9134 20.5287 37.5697 24.6356C37.226 28.7426 35.3228 32.5621 32.251 35.3096C29.1791 38.0572 25.1719 39.5243 21.0521 39.4096C16.9324 39.2949 13.013 37.6072 10.0988 34.6929C7.18455 31.7787 5.49679 27.8593 5.38211 23.7396C5.26742 19.6198 6.73451 15.6126 9.48209 12.5407C12.2297 9.46892 16.0491 7.56572 20.1561 7.22202C24.2631 6.87832 28.3457 8.12021 31.5657 10.6926ZM21.5001 35.8333C23.1471 35.8333 24.778 35.5089 26.2996 34.8786C27.8212 34.2483 29.2038 33.3245 30.3684 32.1599C31.533 30.9953 32.4568 29.6127 33.0871 28.0911C33.7174 26.5695 34.0418 24.9386 34.0418 23.2916C34.0418 21.6446 33.7174 20.0138 33.0871 18.4921C32.4568 16.9705 31.533 15.5879 30.3684 14.4233C29.2038 13.2587 27.8212 12.3349 26.2996 11.7046C24.778 11.0744 23.1471 10.75 21.5001 10.75C18.1738 10.75 14.9838 12.0713 12.6318 14.4233C10.2798 16.7753 8.95842 19.9654 8.95842 23.2916C8.95842 26.6179 10.2798 29.8079 12.6318 32.1599C14.9838 34.5119 18.1738 35.8333 21.5001 35.8333ZM19.7084 14.3333H23.2918V25.0833H19.7084V14.3333ZM14.3334 1.79163H28.6668V5.37496H14.3334V1.79163Z" fill="#FF7F6B"/>
</svg>
