<svg width="23" height="14" viewBox="0 0 23 14" fill="none" xmlns="http://www.w3.org/2000/svg">
<path d="M14.9157 2.01416H8.9668V11.7326H14.9157V2.01416Z" fill="#7375CF"/>
<path d="M9.34449 6.8733C9.34355 5.93734 9.57686 5.01345 10.0267 4.17158C10.4766 3.32971 11.1313 2.59191 11.9412 2.01406C10.9383 1.29738 9.73374 0.851689 8.46533 0.727926C7.19692 0.604163 5.91579 0.807321 4.76838 1.31418C3.62097 1.82104 2.65358 2.61115 1.97677 3.5942C1.29996 4.57725 0.94104 5.71358 0.94104 6.8733C0.94104 8.03302 1.29996 9.16936 1.97677 10.1524C2.65358 11.1355 3.62097 11.9256 4.76838 12.4324C5.91579 12.9393 7.19692 13.1424 8.46533 13.0187C9.73374 12.8949 10.9383 12.4492 11.9412 11.7325C11.1313 11.1547 10.4766 10.4169 10.0267 9.57502C9.57686 8.73315 9.34355 7.80926 9.34449 6.8733Z" fill="#EB001B"/>
<path d="M22.2923 10.7028V10.5038H22.3805V10.4633H22.1558V10.5038H22.2441V10.7028H22.2923ZM22.7286 10.7028V10.4629H22.6597L22.5805 10.6279L22.5012 10.4629H22.4323V10.7028H22.4809V10.5218L22.5552 10.6778H22.6057L22.68 10.5214V10.7028H22.7286Z" fill="#00A2E5"/>
<path d="M22.9411 6.8733C22.9412 8.03301 22.5823 9.16933 21.9055 10.1524C21.2287 11.1354 20.2614 11.9255 19.114 12.4324C17.9666 12.9393 16.6855 13.1424 15.4171 13.0187C14.1487 12.8949 12.9442 12.4492 11.9413 11.7325C12.7505 11.1541 13.4046 10.4162 13.8545 9.57445C14.3043 8.73271 14.538 7.80911 14.538 6.8733C14.538 5.93749 14.3043 5.01389 13.8545 4.17215C13.4046 3.33041 12.7505 2.5925 11.9413 2.01406C12.9442 1.29738 14.1487 0.851687 15.4171 0.727925C16.6855 0.604163 17.9666 0.807325 19.114 1.31419C20.2614 1.82105 21.2287 2.61117 21.9055 3.59422C22.5823 4.57727 22.9412 5.71359 22.9411 6.8733Z" fill="#00A2E5"/>
</svg>
