<svg width="23" height="14" viewBox="0 0 23 14" fill="none" xmlns="http://www.w3.org/2000/svg">
<path d="M14.9158 2.01416H8.96692V11.7326H14.9158V2.01416Z" fill="#FF5F00"/>
<path d="M9.34459 6.87328C9.34365 5.93732 9.57695 5.01344 10.0268 4.17157C10.4767 3.3297 11.1314 2.59191 11.9413 2.01405C10.9384 1.29738 9.73384 0.851689 8.46543 0.727926C7.19702 0.604163 5.9159 0.807321 4.7685 1.31418C3.62109 1.82104 2.6537 2.61114 1.97689 3.59419C1.30008 4.57724 0.941162 5.71356 0.941162 6.87328C0.941162 8.033 1.30008 9.16933 1.97689 10.1524C2.6537 11.1354 3.62109 11.9255 4.7685 12.4324C5.9159 12.9392 7.19702 13.1424 8.46543 13.0186C9.73384 12.8949 10.9384 12.4492 11.9413 11.7325C11.1314 11.1547 10.4767 10.4169 10.0268 9.575C9.57696 8.73313 9.34365 7.80924 9.34459 6.87328Z" fill="#EB001B"/>
<path d="M22.9412 6.87328C22.9412 8.03298 22.5824 9.16931 21.9056 10.1524C21.2288 11.1354 20.2615 11.9255 19.1141 12.4324C17.9667 12.9392 16.6856 13.1424 15.4172 13.0186C14.1488 12.8949 12.9443 12.4492 11.9414 11.7325C12.7506 11.1541 13.4048 10.4162 13.8546 9.57442C14.3044 8.73269 14.5381 7.80909 14.5381 6.87328C14.5381 5.93747 14.3044 5.01388 13.8546 4.17214C13.4048 3.3304 12.7506 2.59249 11.9414 2.01405C12.9443 1.29738 14.1488 0.851686 15.4172 0.727925C16.6856 0.604163 17.9667 0.807325 19.1141 1.31419C20.2615 1.82105 21.2288 2.61116 21.9056 3.59421C22.5824 4.57726 22.9412 5.71358 22.9412 6.87328Z" fill="#F79E1B"/>
<path d="M22.2925 10.7028V10.5038H22.3808V10.4633H22.156V10.5038H22.2443V10.7028H22.2925ZM22.7289 10.7028V10.4629H22.66L22.5807 10.6279L22.5015 10.4629H22.4325V10.7028H22.4812V10.5218L22.5555 10.6778H22.6059L22.6802 10.5214V10.7028H22.7289Z" fill="#F79E1B"/>
</svg>
