<svg width="21" height="6" viewBox="0 0 21 6" fill="none" xmlns="http://www.w3.org/2000/svg">
<path d="M13.8429 0.20874H12.3556C12.254 0.20874 12.1675 0.286077 12.1516 0.391165L11.5501 4.38017C11.5382 4.45887 11.5965 4.52984 11.6724 4.52984H12.4356C12.5065 4.52984 12.5671 4.47571 12.5782 4.40201L12.7489 3.27129C12.7646 3.16598 12.8513 3.08864 12.9529 3.08864H13.4234C14.4033 3.08864 14.9684 2.59277 15.1163 1.61014C15.183 1.18023 15.1189 0.84245 14.9264 0.605889C14.7153 0.346127 14.3406 0.20874 13.8429 0.20874ZM14.0145 1.66564C13.9334 2.22383 13.5256 2.22383 13.1312 2.22383H12.907L13.0647 1.18137C13.074 1.11836 13.1258 1.07196 13.1869 1.07196H13.2897C13.558 1.07196 13.8116 1.07196 13.9425 1.23209C14.0206 1.32763 14.0443 1.46956 14.0145 1.66564Z" fill="#179BD7"/>
<path d="M18.2878 1.6477H17.5761C17.515 1.6477 17.4631 1.6941 17.4539 1.7571L17.4224 1.96546L17.3724 1.88994C17.2182 1.65588 16.8747 1.57764 16.5315 1.57764C15.7446 1.57764 15.0727 2.20111 14.9418 3.0757C14.8739 3.51198 14.9703 3.92914 15.2068 4.22007C15.4243 4.48756 15.7344 4.59902 16.1038 4.59902C16.7379 4.59902 17.0895 4.17253 17.0895 4.17253L17.0577 4.37952C17.0458 4.45867 17.1041 4.52964 17.1804 4.52964H17.8216C17.9232 4.52964 18.0097 4.45231 18.0256 4.34699L18.4107 1.79737C18.4224 1.71889 18.3642 1.6477 18.2878 1.6477ZM17.2952 3.09754C17.2269 3.52312 16.9036 3.80881 16.4917 3.80881C16.2854 3.80881 16.1197 3.73944 16.0136 3.60797C15.9083 3.4774 15.8687 3.29157 15.9018 3.08457C15.9664 2.66263 16.2943 2.36761 16.6998 2.36761C16.9021 2.36761 17.0664 2.4379 17.1747 2.57051C17.2837 2.70449 17.3267 2.89146 17.2952 3.09754Z" fill="#179BD7"/>
<path d="M19.1276 0.318133L18.5172 4.38016C18.5052 4.45886 18.5635 4.52983 18.6394 4.52983H19.253C19.355 4.52983 19.4416 4.45249 19.4572 4.34717L20.0591 0.358394C20.0711 0.279692 20.0128 0.208496 19.9369 0.208496H19.2498C19.1891 0.208724 19.1369 0.255126 19.1276 0.318133Z" fill="#179BD7"/>
<path d="M3.2356 0.208984H1.74848C1.64672 0.208984 1.56018 0.286322 1.5443 0.391409L0.942845 4.38042C0.930886 4.45912 0.989161 4.53009 1.06548 4.53009H1.77545C1.87721 4.53009 1.96376 4.45275 1.97963 4.34743L2.14184 3.27154C2.1575 3.16622 2.24426 3.08889 2.34581 3.08889H2.81658C3.79618 3.08889 4.36154 2.59302 4.50918 1.61038C4.57572 1.18048 4.51201 0.842694 4.31957 0.606134C4.10821 0.346372 3.73333 0.208984 3.2356 0.208984ZM3.40716 1.66588C3.32584 2.22407 2.91813 2.22407 2.5239 2.22407H2.29949L2.45692 1.18161C2.46627 1.11861 2.51846 1.0722 2.57935 1.0722H2.6822C2.95074 1.0722 3.20407 1.0722 3.33497 1.23234C3.41304 1.32787 3.43695 1.46981 3.40716 1.66588Z" fill="#253B80"/>
<path d="M7.68086 1.64794H6.96872C6.90806 1.64794 6.85565 1.69434 6.8463 1.75735L6.81477 1.9657L6.76498 1.89019C6.61081 1.65613 6.26702 1.57788 5.92389 1.57788C5.13696 1.57788 4.46483 2.20136 4.33393 3.07595C4.26587 3.51222 4.36263 3.92939 4.59921 4.22031C4.81622 4.48781 5.12673 4.59926 5.49618 4.59926C6.13025 4.59926 6.48186 4.17277 6.48186 4.17277L6.45011 4.37976C6.43815 4.45892 6.49643 4.52989 6.57232 4.52989H7.21378C7.31577 4.52989 7.40188 4.45255 7.41797 4.34723L7.80285 1.79761C7.81502 1.71913 7.75697 1.64794 7.68086 1.64794ZM6.68822 3.09778C6.6195 3.52337 6.2966 3.80906 5.88475 3.80906C5.67796 3.80906 5.5127 3.73968 5.40659 3.60821C5.30134 3.47765 5.26133 3.29181 5.29482 3.08482C5.35897 2.66288 5.68731 2.36786 6.09285 2.36786C6.29507 2.36786 6.45946 2.43814 6.56775 2.57075C6.67626 2.70473 6.71931 2.8917 6.68822 3.09778Z" fill="#253B80"/>
<path d="M11.4736 1.64795H10.758C10.6897 1.64795 10.6255 1.68343 10.5868 1.7428L9.59984 3.26361L9.18147 1.80217C9.15516 1.71073 9.07449 1.64795 8.98316 1.64795H8.27994C8.19448 1.64795 8.13512 1.73529 8.1623 1.81946L8.95054 4.2392L8.20948 5.33352C8.15121 5.41973 8.20992 5.53824 8.3106 5.53824H9.02534C9.09319 5.53824 9.15668 5.50366 9.19517 5.44543L11.5753 1.85153C11.6323 1.76555 11.5738 1.64795 11.4736 1.64795Z" fill="#253B80"/>
</svg>
