<svg width="22" height="22" viewBox="0 0 22 22" fill="none" xmlns="http://www.w3.org/2000/svg">
<circle cx="11" cy="11" r="10" stroke="#FF7F6B" stroke-width="2"/>
<path d="M8.468 13.4651C8.74 13.2491 8.864 13.1491 8.84 13.1651C9.624 12.5171 10.24 11.9851 10.688 11.5691C11.144 11.1531 11.528 10.7171 11.84 10.2611C12.152 9.80513 12.308 9.36113 12.308 8.92913C12.308 8.60113 12.232 8.34513 12.08 8.16113C11.928 7.97713 11.7 7.88513 11.396 7.88513C11.092 7.88513 10.852 8.00113 10.676 8.23313C10.508 8.45713 10.424 8.77713 10.424 9.19313H8.444C8.46 8.51313 8.604 7.94513 8.876 7.48913C9.156 7.03313 9.52 6.69713 9.968 6.48113C10.424 6.26513 10.928 6.15713 11.48 6.15713C12.432 6.15713 13.148 6.40113 13.628 6.88913C14.116 7.37713 14.36 8.01313 14.36 8.79713C14.36 9.65313 14.068 10.4491 13.484 11.1851C12.9 11.9131 12.156 12.6251 11.252 13.3211H14.492V14.9891H8.468V13.4651Z" fill="#FF7F6B"/>
</svg>
