<svg width="14" height="19" viewBox="0 0 14 19" fill="none" xmlns="http://www.w3.org/2000/svg">
<path d="M3.80511 5.59793V4.18671C3.80511 2.66384 5.14733 1.42492 6.79717 1.42492C8.44702 1.42492 9.78924 2.66384 9.78924 4.18671V5.59793C9.796 5.60056 9.80281 5.60296 9.80958 5.60559C10.2366 5.77229 10.6431 5.9727 11.0273 6.20458V4.18671C11.0273 2.03369 9.1297 0.282104 6.79717 0.282104C4.46464 0.282104 2.56702 2.03369 2.56702 4.18671V6.20458C2.95128 5.97274 3.35779 5.77233 3.78477 5.60559C3.79153 5.60296 3.79834 5.60056 3.80511 5.59793Z" fill="#FF8D7B"/>
<path d="M6.79517 6.18713C3.20531 6.18713 0.295166 8.87331 0.295166 12.1869C0.295166 15.5005 3.20531 18.1867 6.79517 18.1867C10.385 18.1867 13.2952 15.5005 13.2952 12.1869C13.2952 8.87331 10.385 6.18713 6.79517 6.18713ZM6.28144 14.2643L3.85444 12.0241L4.7299 11.216L6.28144 12.6481L8.59395 10.5136L9.46941 11.3216L6.28144 14.2643Z" fill="#FF8D7B"/>
</svg>
