<svg width="50" height="50" viewBox="0 0 50 50" fill="none" xmlns="http://www.w3.org/2000/svg">
<g clip-path="url(#clip0_1_1198)">
<path d="M49.7732 24.9965C49.7732 11.3131 38.6806 0.220497 24.9972 0.220497C11.3138 0.220497 0.221191 11.3131 0.221191 24.9965C0.221191 38.6799 11.3138 49.7725 24.9972 49.7725C38.6806 49.7725 49.7732 38.6799 49.7732 24.9965Z" fill="url(#paint0_linear_1_1198)" stroke="url(#paint1_linear_1_1198)" stroke-width="1.89263" stroke-miterlimit="10"/>
<path opacity="0.8" d="M37.0609 15.9971C36.7962 15.7313 36.4815 15.5203 36.135 15.3764C35.7885 15.2324 35.417 15.1583 35.0418 15.1583C34.6666 15.1583 34.2951 15.2324 33.9486 15.3764C33.6021 15.5203 33.2875 15.7313 33.0227 15.9971L21.5054 27.6638L16.9833 23.1417C16.7185 22.8758 16.4039 22.6649 16.0574 22.5209C15.7109 22.377 15.3394 22.3029 14.9642 22.3029C14.589 22.3029 14.2174 22.377 13.8709 22.5209C13.5244 22.6649 13.2098 22.8758 12.9451 23.1417C12.6792 23.4065 12.4682 23.7211 12.3243 24.0676C12.1803 24.4141 12.1062 24.7856 12.1062 25.1608C12.1062 25.536 12.1803 25.9075 12.3243 26.254C12.4682 26.6005 12.6792 26.9152 12.9451 27.1799L17.4672 31.708L19.7252 33.9661L19.9582 34.1991C20.1613 34.4024 20.4024 34.5638 20.6679 34.6739C20.9334 34.7839 21.218 34.8406 21.5054 34.8406C21.7928 34.8406 22.0774 34.7839 22.3429 34.6739C22.6083 34.5638 22.8495 34.4024 23.0526 34.1991L37.0609 20.0354C37.3268 19.7706 37.5378 19.456 37.6817 19.1095C37.8257 18.763 37.8998 18.3915 37.8998 18.0163C37.8998 17.641 37.8257 17.2695 37.6817 16.9231C37.5378 16.5766 37.3268 16.2619 37.0609 15.9971Z" fill="url(#paint2_linear_1_1198)"/>
</g>
<defs>
<linearGradient id="paint0_linear_1_1198" x1="37.3896" y1="46.4571" x2="12.6107" y2="3.53591" gradientUnits="userSpaceOnUse">
<stop stop-color="white" stop-opacity="0"/>
<stop offset="1" stop-color="white" stop-opacity="0.45"/>
</linearGradient>
<linearGradient id="paint1_linear_1_1198" x1="0.000163949" y1="24.9995" x2="50.0002" y2="24.9995" gradientUnits="userSpaceOnUse">
<stop stop-color="white" stop-opacity="0.62"/>
<stop offset="1" stop-color="white" stop-opacity="0.5"/>
</linearGradient>
<linearGradient id="paint2_linear_1_1198" x1="25.003" y1="15.1583" x2="25.003" y2="34.8406" gradientUnits="userSpaceOnUse">
<stop stop-color="#008E7E"/>
<stop offset="1" stop-color="#01C1AC"/>
</linearGradient>
<clipPath id="clip0_1_1198">
<rect width="50" height="50" fill="white"/>
</clipPath>
</defs>
</svg>
