<svg width="22" height="22" viewBox="0 0 22 22" fill="none" xmlns="http://www.w3.org/2000/svg">
<circle cx="11" cy="11" r="10" stroke="#FF7F6B" stroke-width="2"/>
<path d="M7.612 8.82113C7.644 7.96513 7.924 7.30513 8.452 6.84113C8.98 6.37713 9.696 6.14513 10.6 6.14513C11.2 6.14513 11.712 6.24913 12.136 6.45713C12.568 6.66513 12.892 6.94913 13.108 7.30913C13.332 7.66913 13.444 8.07313 13.444 8.52113C13.444 9.04913 13.312 9.48113 13.048 9.81713C12.784 10.1451 12.476 10.3691 12.124 10.4891V10.5371C12.58 10.6891 12.94 10.9411 13.204 11.2931C13.468 11.6451 13.6 12.0971 13.6 12.6491C13.6 13.1451 13.484 13.5851 13.252 13.9691C13.028 14.3451 12.696 14.6411 12.256 14.8571C11.824 15.0731 11.308 15.1811 10.708 15.1811C9.748 15.1811 8.98 14.9451 8.404 14.4731C7.836 14.0011 7.536 13.2891 7.504 12.3371H9.496C9.504 12.6891 9.604 12.9691 9.796 13.1771C9.988 13.3771 10.268 13.4771 10.636 13.4771C10.948 13.4771 11.188 13.3891 11.356 13.2131C11.532 13.0291 11.62 12.7891 11.62 12.4931C11.62 12.1091 11.496 11.8331 11.248 11.6651C11.008 11.4891 10.62 11.4011 10.084 11.4011H9.7V9.73313H10.084C10.492 9.73313 10.82 9.66513 11.068 9.52913C11.324 9.38513 11.452 9.13313 11.452 8.77313C11.452 8.48513 11.372 8.26113 11.212 8.10113C11.052 7.94113 10.832 7.86113 10.552 7.86113C10.248 7.86113 10.02 7.95313 9.868 8.13713C9.724 8.32113 9.64 8.54913 9.616 8.82113H7.612Z" fill="#FF7F6B"/>
</svg>
