<svg width="46" height="46" viewBox="0 0 46 46" fill="none" xmlns="http://www.w3.org/2000/svg">
<path d="M13.4168 15.3333H26.8335V11.4999C26.8335 10.4833 26.4296 9.50823 25.7107 8.78934C24.9918 8.07045 24.0168 7.66659 23.0002 7.66659C21.9835 7.66659 21.0085 8.07045 20.2896 8.78934C19.5707 9.50823 19.1668 10.4833 19.1668 11.4999C19.1668 12.0083 18.9649 12.4958 18.6055 12.8552C18.246 13.2147 17.7585 13.4166 17.2502 13.4166C16.7418 13.4166 16.2543 13.2147 15.8949 12.8552C15.5354 12.4958 15.3335 12.0083 15.3335 11.4999C15.3335 9.46659 16.1412 7.51655 17.579 6.07877C19.0168 4.64099 20.9668 3.83325 23.0002 3.83325C25.0335 3.83325 26.9835 4.64099 28.4213 6.07877C29.8591 7.51655 30.6668 9.46659 30.6668 11.4999V15.3333H32.5835C34.1085 15.3333 35.571 15.9391 36.6494 17.0174C37.7277 18.0957 38.3335 19.5583 38.3335 21.0833V36.4166C38.3335 37.9416 37.7277 39.4041 36.6494 40.4824C35.571 41.5608 34.1085 42.1666 32.5835 42.1666H13.4168C11.8918 42.1666 10.4293 41.5608 9.35097 40.4824C8.27263 39.4041 7.66683 37.9416 7.66683 36.4166V21.0833C7.66683 19.5583 8.27263 18.0957 9.35097 17.0174C10.4293 15.9391 11.8918 15.3333 13.4168 15.3333ZM11.5002 36.4166C11.5002 36.9249 11.7021 37.4124 12.0615 37.7719C12.421 38.1313 12.9085 38.3333 13.4168 38.3333H32.5835C33.0918 38.3333 33.5793 38.1313 33.9388 37.7719C34.2982 37.4124 34.5002 36.9249 34.5002 36.4166V21.0833C34.5002 20.5749 34.2982 20.0874 33.9388 19.728C33.5793 19.3685 33.0918 19.1666 32.5835 19.1666H13.4168C12.9085 19.1666 12.421 19.3685 12.0615 19.728C11.7021 20.0874 11.5002 20.5749 11.5002 21.0833V36.4166Z" fill="#FF7F6B"/>
<path d="M23 23C24.1372 23 25.2489 23.3372 26.1945 23.9691C27.1401 24.6009 27.8771 25.4989 28.3123 26.5496C28.7475 27.6002 28.8614 28.7564 28.6395 29.8718C28.4176 30.9872 27.87 32.0117 27.0659 32.8159C26.2617 33.62 25.2372 34.1677 24.1218 34.3895C23.0064 34.6114 21.8502 34.4975 20.7996 34.0623C19.7489 33.6271 18.8509 32.8901 18.219 31.9445C17.5872 30.9989 17.25 29.8872 17.25 28.75C17.25 27.225 17.8558 25.7625 18.9341 24.6841C20.0125 23.6058 21.475 23 23 23ZM23 30.6667C23.3791 30.6667 23.7496 30.5543 24.0648 30.3436C24.38 30.133 24.6257 29.8337 24.7708 29.4835C24.9158 29.1333 24.9538 28.7479 24.8798 28.3761C24.8059 28.0043 24.6233 27.6628 24.3553 27.3947C24.0872 27.1267 23.7457 26.9441 23.3739 26.8702C23.0021 26.7962 22.6167 26.8342 22.2665 26.9792C21.9163 27.1243 21.617 27.37 21.4063 27.6852C21.1957 28.0004 21.0833 28.3709 21.0833 28.75C21.0833 29.2583 21.2853 29.7458 21.6447 30.1053C22.0042 30.4647 22.4917 30.6667 23 30.6667Z" fill="#FF7F6B"/>
</svg>
