<svg width="23" height="8" viewBox="0 0 23 8" fill="none" xmlns="http://www.w3.org/2000/svg">
<path d="M11.8343 0.737867L10.3645 6.98471H8.58666L10.0566 0.737867H11.8343ZM19.3133 4.77153L20.249 2.42571L20.7875 4.77153H19.3133ZM21.2975 6.98471H22.9413L21.5052 0.737867H19.9889C19.6472 0.737867 19.3591 0.91799 19.2316 1.19576L16.5642 6.98471H18.4312L18.8018 6.05178H21.0822L21.2975 6.98471ZM16.6567 4.94533C16.6645 3.29668 14.1498 3.20536 14.1666 2.46871C14.172 2.24489 14.4069 2.00646 14.9204 1.94548C15.1749 1.91569 15.8773 1.89153 16.6736 2.22508L16.985 0.899865C16.5574 0.759223 16.007 0.623779 15.3222 0.623779C13.5648 0.623779 12.3285 1.47241 12.3186 2.68859C12.3073 3.58794 13.2017 4.08939 13.8742 4.38894C14.5675 4.6951 14.7998 4.89138 14.7964 5.16494C14.7916 5.58405 14.2436 5.76965 13.7332 5.77668C12.839 5.78933 12.3206 5.55694 11.9075 5.38187L11.5848 6.75134C12.0009 6.92444 12.7674 7.07506 13.5612 7.08278C15.4296 7.08278 16.6512 6.24413 16.6567 4.94533ZM9.29404 0.737867L6.41366 6.98471H4.53477L3.11722 1.99929C3.03129 1.69272 2.95633 1.58003 2.69499 1.45049C2.26749 1.23946 1.56181 1.04205 0.941284 0.919255L0.983323 0.737867H4.00821C4.39351 0.737867 4.74017 0.970959 4.82842 1.37448L5.57722 4.98959L7.42644 0.737867H9.29404Z" fill="#1434CB"/>
</svg>
